<?xml version="1.0" encoding="UTF-8" standalone="no"?>
<!-- Created with Inkscape (http://www.inkscape.org/) -->

<svg
   width="899.99994"
   height="900.00012"
   viewBox="0 0 238.12498 238.12503"
   version="1.1"
   id="svg1"
   xml:space="preserve"
   xmlns="http://www.w3.org/2000/svg"
   xmlns:svg="http://www.w3.org/2000/svg"><defs
     id="defs1" /><g
     id="layer1"
     transform="translate(-13.229169,-13.229166)"><g
       id="g5"
       style="stroke-width:16.064;stroke-dasharray:none"
       transform="matrix(0.98823538,0,0,0.98823538,1.5563786,1.5563767)"><path
         id="path3"
         style="fill:none;stroke:#ffffff;stroke-width:16.064;stroke-linecap:round;stroke-linejoin:round;stroke-dasharray:none;paint-order:markers stroke fill"
         d="M 79.507291,19.84375 H 44.832405 c -13.843586,0 -24.988655,11.145069 -24.988655,24.988655 v 34.674886 m 0,105.833329 v 34.4103 c 0,13.84358 11.145069,24.98866 24.988655,24.98866 h 34.674886" /><path
         d="m 185.07639,11.812273 a 8.0319996,8.0319996 0 0 0 -8.03147,8.031471 8.0319996,8.0319996 0 0 0 8.03147,8.03147 h 34.67353 c 9.53269,0 16.95712,7.423906 16.95712,16.956605 v 34.676143 a 8.0319996,8.0319996 0 0 0 8.03304,8.030948 8.0319996,8.0319996 0 0 0 8.03147,-8.030948 V 44.831819 c 0,-18.154473 -14.86716,-33.019546 -33.02163,-33.019546 z m 59.66369,165.496187 a 8.0319996,8.0319996 0 0 0 -8.03304,8.03147 v 34.40998 c 0,9.53269 -7.42443,16.95713 -16.95712,16.95713 h -34.67353 a 8.0319996,8.0319996 0 0 0 -8.03147,8.03304 8.0319996,8.0319996 0 0 0 8.03147,8.03147 h 34.67353 c 18.15447,0 33.02163,-14.86717 33.02163,-33.02164 v -34.40998 a 8.0319996,8.0319996 0 0 0 -8.03147,-8.03147 z"
         style="fill:#ffffff;stroke-linecap:round;stroke-linejoin:round;paint-order:markers stroke fill"
         id="path6" /></g><path
       id="path44"
       style="baseline-shift:baseline;display:inline;overflow:visible;vector-effect:none;fill:#ffffff;stroke-linecap:round;stroke-linejoin:round;paint-order:markers stroke fill;enable-background:accumulate;stop-color:#000000;stop-opacity:1"
       d="m 58.208849,52.916149 a 5.2922291,5.2922291 0 0 0 -2.556433,0.684713 c -0.0479,0.02661 -0.09731,0.05051 -0.144177,0.07855 a 5.2922291,5.2922291 0 0 0 -1.828829,1.828829 c -0.028,0.04692 -0.05185,0.09633 -0.07855,0.144177 a 5.2922291,5.2922291 0 0 0 -0.684713,2.556433 V 206.375 a 5.2922291,5.2922291 0 0 0 0.68523,2.5554 c 0.0268,0.0482 0.05076,0.098 0.07906,0.14521 a 5.2922291,5.2922291 0 0 0 1.828312,1.82779 c 0.0472,0.0282 0.0971,0.0517 0.145211,0.0786 a 5.2922291,5.2922291 0 0 0 2.554882,0.6842 H 206.375 a 5.2922291,5.2922291 0 0 0 2.55488,-0.68523 c 0.0482,-0.0268 0.098,-0.0508 0.14521,-0.0791 a 5.2922291,5.2922291 0 0 0 1.82676,-1.82676 c 0.0283,-0.0472 0.0523,-0.097 0.0791,-0.14521 a 5.2922291,5.2922291 0 0 0 0.68523,-2.55488 V 58.208849 c 5e-5,-0.339308 -0.0388,-0.669076 -0.0997,-0.990637 a 5.2922291,5.2922291 0 0 0 -0.0997,-0.37207 c -0.0516,-0.193141 -0.10394,-0.385706 -0.17622,-0.569474 a 5.2922291,5.2922291 0 0 0 -0.18087,-0.38809 c -0.0812,-0.165253 -0.16517,-0.328694 -0.26251,-0.483692 a 5.2922291,5.2922291 0 0 0 -0.24495,-0.349849 c -0.11045,-0.147816 -0.22643,-0.2905 -0.3514,-0.425814 A 5.2922291,5.2922291 0 0 0 209.95411,54.3326 c -0.13554,-0.125246 -0.27876,-0.241759 -0.42685,-0.352433 a 5.2922291,5.2922291 0 0 0 -0.34778,-0.243396 c -0.15485,-0.09737 -0.31808,-0.181294 -0.48318,-0.262516 a 5.2922291,5.2922291 0 0 0 -0.39015,-0.181901 c -0.18262,-0.07187 -0.37398,-0.124211 -0.56586,-0.1757 a 5.2922291,5.2922291 0 0 0 -0.37466,-0.100769 c -0.32153,-0.06109 -0.65132,-0.09966 -0.99063,-0.09974 z m 5.29115,10.58385 H 82.020832 V 82.020832 H 63.499999 Z m 23.811983,0 H 105.83333 V 82.020832 H 87.311982 Z m 23.812498,0 h 18.52135 v 18.520833 h -18.52135 z m 23.8125,0 h 18.52135 v 18.520833 h -18.52135 z m 23.8125,0 h 18.52135 v 18.520833 h -18.52135 z m 23.8125,0 h 18.52187 v 18.520833 h -18.52135 -5.2e-4 z m -14.55157,5.291667 a 3.96875,3.96875 0 0 0 -3.96875,3.96875 3.96875,3.96875 0 0 0 3.96875,3.96875 3.96875,3.96875 0 0 0 3.96875,-3.96875 3.96875,3.96875 0 0 0 -3.96875,-3.96875 z M 63.499999,87.311982 H 82.020832 V 105.83333 H 63.499999 Z m 119.062501,0 h 18.52135 V 105.83333 H 182.5625 Z M 87.765184,87.765184 H 176.81815 V 176.81815 H 87.765184 Z M 63.499999,111.12448 h 18.520833 v 18.52135 H 63.499999 Z m 119.062501,0 h 18.52135 v 18.52135 H 182.5625 Z m -109.802084,5.29219 a 3.96875,3.96875 0 0 0 -3.96875,3.96875 3.96875,3.96875 0 0 0 3.96875,3.96875 3.96875,3.96875 0 0 0 3.96875,-3.96875 3.96875,3.96875 0 0 0 -3.96875,-3.96875 z m 119.062494,0 a 3.96875,3.96875 0 0 0 -3.96875,3.96875 3.96875,3.96875 0 0 0 3.96875,3.96875 3.96875,3.96875 0 0 0 3.96875,-3.96875 3.96875,3.96875 0 0 0 -3.96875,-3.96875 z M 63.499999,134.93698 h 18.520833 v 18.52135 H 63.499999 Z m 119.062501,0 h 18.52135 v 18.52135 H 182.5625 Z m -119.062501,23.8125 h 18.520833 v 18.52135 H 63.499999 Z m 119.062501,0 h 18.52135 v 18.52135 H 182.5625 Z m 0,23.8125 h 18.52135 v 18.52187 H 182.56198 V 182.5625 h 5.2e-4 z m -95.250518,5.2e-4 h 18.521348 v 18.52135 H 87.311982 Z m 23.812498,0 h 18.52135 v 18.52135 h -18.52135 z m 23.8125,0 h 18.52135 v 18.52135 h -18.52135 z m 23.8125,0 h 18.52135 v 18.52135 h -18.52135 z m -85.989064,2.6479 4.286043,7.41247 h -2.85719 v 5.81256 h -2.857707 v -5.81256 h -2.857189 z m 119.062494,2.64376 a 3.96875,3.96875 0 0 0 -3.96875,3.96875 3.96875,3.96875 0 0 0 3.96875,3.96875 3.96875,3.96875 0 0 0 3.96875,-3.96875 3.96875,3.96875 0 0 0 -3.96875,-3.96875 z" /><g
       id="g151"
       transform="matrix(0.81645891,0,0,0.81645891,30.07325,24.042159)"
       style="stroke-width:1.2248"><path
         id="path139"
         style="opacity:0.5;fill:#ffffff;stroke:none;stroke-width:12.9624;stroke-linecap:square;stroke-linejoin:round;stroke-dasharray:none;paint-order:markers stroke fill"
         d="M 117.26182,86.109962 88.917324,102.47439 a 15.871214,15.871214 120.0002 0 0 -7.935705,13.74494 v 32.72966 a 15.871213,15.871213 59.999795 0 0 7.935705,13.74493 l 28.344486,16.36442 a 15.871515,15.871515 179.99986 0 0 15.87139,-4e-5 l 28.34403,-16.36434 a 15.871305,15.871305 120.00006 0 0 7.93568,-13.74498 v -32.72966 a 15.871306,15.871306 59.99994 0 0 -7.93568,-13.74497 L 133.1332,86.110002 a 15.871513,15.871513 1.4336261e-4 0 0 -15.87138,-4e-5 z" /><path
         style="opacity:1;fill:#ffffff;stroke:none;stroke-width:12.9624;stroke-linecap:square;stroke-linejoin:round;stroke-dasharray:none;paint-order:markers stroke fill"
         d="m 90.517629,103.81609 c -3.59585,2.07604 -3.61283,5.40889 -0.0381,7.47275 l 28.265381,16.31892 c 3.57472,2.06385 9.34734,2.05403 12.94315,-0.022 l 28.1889,-16.27495 c 3.59577,-2.07603 3.61276,-5.40884 0.0381,-7.47268 L 131.65001,87.519189 c -3.5747,-2.06387 -9.34733,-2.05409 -12.94315,0.022 z"
         id="path140" /><path
         style="opacity:1;fill:#000000;stroke:none;stroke-width:12.9624;stroke-linecap:square;stroke-linejoin:round;stroke-dasharray:none;paint-order:markers stroke fill"
         d="m 143.11804,104.79786 c 2.81145,-1.62315 7.39449,-1.60877 10.23654,0.0321 2.84207,1.64087 2.86696,4.28689 0.0556,5.91008 -2.81139,1.62327 -7.39461,1.60896 -10.23674,-0.0319 -2.84217,-1.64092 -2.86697,-4.28705 -0.0554,-5.91022 z"
         id="path141" /><path
         style="opacity:1;fill:#000000;stroke:none;stroke-width:12.9624;stroke-linecap:square;stroke-linejoin:round;stroke-dasharray:none;paint-order:markers stroke fill"
         d="m 120.40754,117.90979 c 2.81146,-1.62316 7.39454,-1.60879 10.2366,0.0321 2.84209,1.64086 2.86698,4.2869 0.0556,5.91009 -2.81145,1.62316 -7.39452,1.6088 -10.23657,-0.0321 -2.84211,-1.64085 -2.867,-4.28688 -0.0556,-5.91009 z"
         id="path142" /><path
         style="opacity:1;fill:#000000;stroke:none;stroke-width:12.9624;stroke-linecap:square;stroke-linejoin:round;stroke-dasharray:none;paint-order:markers stroke fill"
         d="m 120.0516,104.59235 c 2.81145,-1.62316 7.39454,-1.60879 10.2366,0.0321 2.84209,1.64086 2.86698,4.28689 0.0556,5.91009 -2.81142,1.62328 -7.39465,1.60896 -10.2368,-0.032 -2.8422,-1.64092 -2.867,-4.28705 -0.0554,-5.91023 z"
         id="path143" /><path
         style="opacity:1;fill:#000000;stroke:none;stroke-width:12.9624;stroke-linecap:square;stroke-linejoin:round;stroke-dasharray:none;paint-order:markers stroke fill"
         d="m 119.69566,91.274909 c 2.81146,-1.62315 7.39452,-1.60877 10.23659,0.0321 2.84211,1.64087 2.867,4.28691 0.0556,5.9101 -2.81142,1.62328 -7.39468,1.60896 -10.23683,-0.032 -2.84219,-1.64092 -2.86699,-4.28706 -0.0554,-5.91023 z"
         id="path144" /><path
         style="opacity:1;fill:#000000;stroke:none;stroke-width:12.9624;stroke-linecap:square;stroke-linejoin:round;stroke-dasharray:none;paint-order:markers stroke fill"
         d="m 96.984999,104.38684 c 2.81148,-1.62316 7.394581,-1.60879 10.236671,0.0321 2.84212,1.64087 2.86701,4.28692 0.0556,5.91012 -2.81148,1.62316 -7.394581,1.60878 -10.236661,-0.0321 -2.84212,-1.64087 -2.86701,-4.28692 -0.0556,-5.91011 z"
         id="path145" /><path
         style="opacity:1;fill:#ffffff;stroke:none;stroke-width:12.9624;stroke-linecap:square;stroke-linejoin:round;stroke-dasharray:none;paint-order:markers stroke fill"
         d="m 89.434217,113.18736 c -3.59584,-2.07604 -6.49066,-0.42434 -6.49066,3.70339 v 32.63783 c 0,4.12773 2.89482,9.12206 6.49066,11.1981 l 28.189223,16.27495 c 3.59584,2.07604 6.49065,0.42434 6.49065,-3.70339 v -32.63783 c 0,-4.12773 -2.89481,-9.12206 -6.49065,-11.1981 z"
         id="path146" /><path
         style="opacity:1;fill:#ffffff;fill-opacity:1;stroke:none;stroke-width:12.9624;stroke-linecap:square;stroke-linejoin:round;stroke-dasharray:none;paint-order:markers stroke fill"
         d="m 132.77152,129.46231 c -3.5958,2.07604 -6.49058,7.07038 -6.49058,11.19809 v 32.63785 c 0,4.12772 2.89478,5.77942 6.49058,3.70338 l 28.18889,-16.27495 c 3.59579,-2.07604 6.49058,-7.07037 6.49058,-11.19809 v -32.63785 c 0,-4.1277 -2.89479,-5.77942 -6.49058,-3.70338 z"
         id="path147" /><path
         style="opacity:1;fill:#000000;stroke:none;stroke-width:12.9624;stroke-linecap:square;stroke-linejoin:round;stroke-dasharray:none;paint-order:markers stroke fill"
         d="m 92.173597,146.11947 c 2.81144,1.62321 5.09054,5.59944 5.09053,8.88118 1e-5,3.28175 -2.27909,4.62633 -5.09053,3.00319 -2.81153,-1.62311 -5.09077,-5.59947 -5.09076,-8.88132 -1e-5,-3.28186 2.27923,-4.62639 5.09076,-3.00305 z"
         id="path148" /><path
         style="opacity:1;fill:#000000;stroke:none;stroke-width:12.9624;stroke-linecap:square;stroke-linejoin:round;stroke-dasharray:none;paint-order:markers stroke fill"
         d="m 103.52871,139.15235 c 2.81154,1.62311 5.09078,5.59949 5.09076,8.88133 10e-6,3.28186 -2.27923,4.6264 -5.09076,3.00306 -2.81144,-1.62321 -5.090543,-5.59944 -5.090523,-8.88118 -3e-5,-3.28176 2.279073,-4.62634 5.090523,-3.00321 z"
         id="path149" /><path
         style="opacity:1;fill:#000000;stroke:none;stroke-width:12.9624;stroke-linecap:square;stroke-linejoin:round;stroke-dasharray:none;paint-order:markers stroke fill"
         d="m 114.88405,132.18538 c 2.81154,1.62311 5.09078,5.59947 5.09076,8.88132 3e-5,3.28187 -2.27922,4.62642 -5.09076,3.00308 -2.81145,-1.62321 -5.09055,-5.59947 -5.09054,-8.88121 -1e-5,-3.28176 2.2791,-4.62633 5.09054,-3.00319 z"
         id="path150" /><path
         style="opacity:1;fill:#000000;fill-opacity:1;stroke:none;stroke-width:12.9624;stroke-linecap:square;stroke-linejoin:round;stroke-dasharray:none;paint-order:markers stroke fill"
         d="m 146.86584,139.15223 c 2.81151,-1.62334 5.09073,-0.27879 5.0907,3.00309 2e-5,3.28184 -2.27919,7.2582 -5.0907,8.88131 -2.8114,1.62313 -5.09047,0.27856 -5.09045,-3.0032 -3e-5,-3.28173 2.27905,-7.25798 5.09045,-8.8812 z"
         id="path151" /></g></g></svg>
