<?xml version="1.0" encoding="utf-8"?>
<!-- Generator: Adobe Illustrator 24.2.3, SVG Export Plug-In . SVG Version: 6.00 Build 0)  -->
<svg version="1.1" id="Graphic_elements" xmlns="http://www.w3.org/2000/svg" xmlns:xlink="http://www.w3.org/1999/xlink" x="0px"
	 y="0px" viewBox="0 0 800 1200" style="enable-background:new 0 0 800 1200;" xml:space="preserve">
<style type="text/css">
	.st0{fill:none;}
	.st1{fill:#FFFFFF;}
	.st2{fill:#D9D3A4;}
	.st3{fill:#5190CD;}
</style>
<g>
	<path class="st0" d="M268.7,247.5c110.3,18.4,245.8,6.8,332.3-17.9c0-0.2,0-0.4,0-0.6C514.9,253.9,379.4,265.7,268.7,247.5z"/>
	<path class="st0" d="M186,250.4h-3.9C167.3,351,226.6,451,191.8,543.3c5,10.2,11.4,16.5,9.7,27.2c-2,12.2-16.4,13.2-19.4,23.3
		c11,15,18,33.6,21.3,52.4c14.8,84.4-28.9,171.2-17.4,254.1l0,0l0.4,0.2c9.9-117.9,66.2-203.3,125.5-278c2.7-3.4,5.7-6.9,8.5-10.2
		c7.4-8.7,15.1-17.7,19.8-27.7c15.2-32.5-22.9-77-53.5-112.8c-11.3-13.2-21.9-25.6-28.7-36c-37.2-57.2-63.3-124.8-71.6-185.5
		L186,250.4z"/>
	<path class="st0" d="M619.9,266.8c-3.4-6.4,0.7-20.3-7.1-22.2c-11,139.6-84.2,217-153.1,298.6c-0.7,1.7-1.4,3.2-2.1,4.7
		s-1.3,2.7-1.9,4c-1.2,40.2,31.5,74.1,50.4,100c46.6,63.8,87.3,133,102.8,225c3.1,18.5,1.1,39.7,7.8,56.3c-0.5-1.2,0.3-1.7,1.1-1.8
		c0.8-2.2,1.3-4.4,1.6-6.7c0.3-2,0.7-3.9,1.2-5.8c1.9-60.4-13.8-109-23.3-166.1c-9.3-56.4-9.6-124,15.5-161
		c-18.2-8.6-15.8-34.6-1.9-46.6c-14-23.2-19.1-64.2-14.2-96.8h0.1c-0.2-0.4-0.3-0.9-0.3-1.3c1.4-24.7,7.1-49.3,12.5-73.1
		C616.9,339.1,625.2,303.1,619.9,266.8z"/>
	<polygon class="st0" points="682.6,151.4 682.6,151.4 682.6,151.4 	"/>
	<path class="st0" d="M200.7,997.4L200.7,997.4c-12.1-7.8-1.1-38.9-7.7-52.4l-0.2-0.1c0.1-0.2,0.2-0.5,0.2-0.7
		c0.1-3.4-0.4-6.9-1.4-10.2c-0.4-1.6-0.8-3.2-1-4.7l0.4,0.1c0.1-13,1.5-14.8,1.9-29.1l-0.3,0.1c9.9-116.3,65.6-200.8,124.4-274.8
		c2.7-3.4,5.6-6.8,8.4-10c7.7-8.9,15.6-18.2,20.6-28.8c16.6-35.4-22.7-81.3-54.2-118.2c-11.1-13-21.7-25.4-28.3-35.5
		c-36.7-56.3-62.4-122.8-70.8-182.7l0.2,0.1c1.4-5.9-2-7.1-1.9-11.6l-0.2,0.1c0.2-1.6,0.4-3.2,0.3-4.8c0-1,0.1-2,0.1-3
		c3.4,0,6.8,0.3,10.2,0.9c-3.8-0.7-7.6-1.1-11.4-1.1c-0.1,0.9-0.1,1.9-0.1,3c0,1.6-0.1,3.2-0.3,4.8l0.2-0.1c0,4.6,3.4,5.7,1.9,11.6
		l-0.2-0.1c8.3,59.9,34.1,126.4,70.8,182.7c6.6,10.2,17.1,22.5,28.3,35.5c31.6,36.9,70.9,82.8,54.2,118.2
		c-5,10.6-12.9,19.9-20.6,28.8c-2.8,3.3-5.7,6.7-8.4,10c-58.8,74-114.6,158.5-124.4,274.8l0.3-0.1c-0.4,14.3-1.9,16.1-1.9,29.1
		l-0.4-0.1c0.2,1.5,0.6,3.1,1,4.7c0.8,3.2,1.7,6.5,1.4,10.2c0,0.2-0.1,0.5-0.2,0.7h0.2c6.5,13.5-4.4,44.5,7.8,52.4h-0.1
		c4,2.7,8.1,5.3,12.4,7.8l-0.7-0.9C207.5,1001.9,204.1,999.7,200.7,997.4z"/>
	<path class="st1" d="M268.7,247.5c-11.7-1.9-23.2-4.2-34.3-6.8s-22.1-6.7-33-8.6c-3.4-0.6-6.8-0.9-10.2-0.9c-0.1,1-0.1,2-0.1,3
		c0,1.6-0.1,3.2-0.3,4.8l0.2-0.1c0,4.6,3.4,5.7,1.9,11.6l-0.2-0.1c8.3,59.8,34.1,126.3,70.8,182.7c6.6,10.2,17.1,22.5,28.3,35.5
		c31.6,36.9,70.9,82.8,54.2,118.2c-5,10.6-12.9,19.8-20.6,28.8c-2.8,3.3-5.7,6.7-8.4,10c-58.8,74-114.6,158.5-124.4,274.8l0.3-0.1
		c-0.4,14.2-1.9,16.1-1.9,29.1l-0.4-0.1c0.2,1.5,0.6,3.1,1,4.7c1,3.3,1.5,6.7,1.4,10.2c0,0.2-0.1,0.5-0.2,0.7l0.2,0.1
		c6.5,13.5-4.4,44.5,7.8,52.4h-0.1c3.4,2.3,6.8,4.5,10.4,6.7c-6.7-8.5-8.3-14.6-8.3-14.6l-6.9-58l10.3-72.4
		c0,0,129.7-82.1,182.3-97.2V603.5c-1.1-9.2-2.9-18.2-5.1-27.2c-3.4-12.7-72.5-95.9-72.5-95.9s-64.7-85.2-66.4-92.5
		s109.8-23.5,142.4-21.7s157.8,10.9,152.7,21.7c-1.7,3.5-7.6,12.4-14.9,22.9h0.1c0.1,0,0.3,0,0.4,0c0.2,0,0.4,0.1,0.6,0.2
		c0.7,0.2,1.2,0.7,1.7,1.3c0.7,1,0.8,2.2,0.4,3.3c-9.5,25.1-27.1,45.2-44.1,64.7c-15.2,17.5-31,35.5-40.3,56.7
		c-0.8,1.8-2.9,2.6-4.7,1.8l0,0c-1.1-0.5-1.9-1.5-2.1-2.7c-0.1-0.7,0-1.4,0.2-2.1l0,0c9.7-22.2,25.9-40.7,41.5-58.5
		c15-17.1,30.4-34.8,40-55.7c-14.4,20.4-30.7,42.4-30.7,42.4l-46.5,56.3l-40.5,83.1v157.7l-0.1,0.1c0.5,0,0.9-0.1,1.3-0.1
		c32.6,0,177.5,103.3,177.5,103.3l1.7,5.4c0,0,9,28.1,12.4,57.1l0,0c3.1,25.8,1.1,70.2,0.6,79.5c3.9-2.4,7.7-4.9,11.1-7.5l-0.2-0.1
		c2.2-145.8-43-243.1-106.7-333.6c-8.5-12-19-28.9-29.1-44.6c-14.5-22.5-30-40-20.3-67.3c0-0.2,0-0.5,0.1-0.7c0.8-2,1.7-4,2.7-5.9
		c1-1.8,1.8-3.7,2.5-5.6c0.3-0.8,0.8-1.4,1.5-1.8c17.3-32.9,51.1-68.2,73.7-99c41.2-56.5,66.2-118.5,71.7-208.9
		C514.5,254.3,379,265.9,268.7,247.5z M345.6,612.7c-0.1,0.7-0.4,1.3-0.9,1.8c-26,27.6-48,58.7-65.4,92.3c-1,1.7-3.1,2.2-4.8,1.3
		c-1.6-0.9-2.2-2.8-1.4-4.5c17.7-34.2,40.1-65.8,66.5-93.9c1.3-1.4,3.5-1.5,4.9-0.2C345.4,610.4,345.8,611.6,345.6,612.7
		L345.6,612.7z"/>
	<path class="st2" d="M593.4,925.2L593.4,925.2c-3.4-29-12.4-57.1-12.4-57.1l-1.7-5.4c0,0-144.9-103.3-177.5-103.3
		c-0.4,0-0.9,0-1.3,0.1l0.1-0.1V601.7l40.5-83.1l46.5-56.3c0,0,16.3-22.1,30.7-42.4c0.5-1.1,1-2.2,1.5-3.4l0.1-0.3
		c0.4-1,0.9-2.1,1.3-3.1c0.1-0.2,0.2-0.4,0.3-0.6c0,0,0,0,0-0.1c0.1-0.2,0.2-0.3,0.3-0.5l0.1-0.1c0.1-0.1,0.2-0.2,0.3-0.3l0.2-0.1
		c0.1-0.1,0.2-0.1,0.3-0.2c0.2-0.1,0.5-0.2,0.7-0.3l0,0c0.2,0,0.3-0.1,0.5-0.1h0.1c0.2,0,0.3,0,0.5,0l0,0
		c7.3-10.5,13.2-19.4,14.9-22.9c5.2-10.9-120.1-19.9-152.7-21.7s-144,14.5-142.3,21.7s66.4,92.5,66.4,92.5s69.1,83.2,72.5,95.9
		c2.3,8.9,4,18,5.1,27.2v158.4C336,776.9,206.3,859,206.3,859L196,931.5l6.9,58c0,0,1.6,6.2,8.3,14.6l0.7,0.9
		c105,61.1,296.6,52.2,382.2-0.2C594.5,995.4,596.5,951,593.4,925.2z"/>
	<path d="M670.4,183.3c1-3,3.2-5.8,5.5-8.7l0,0c3.7-4.7,7.9-10.1,7.9-17.5l0.6,0.1c-0.3-2.3,0.3-5.5-1.9-5.8l0,0
		c0.8-7.4-5.3-7.9-4.2-15.6c0-0.1,0.1-0.1,0.1-0.2c1.5-7,2.6-13.9,0-21c-0.1-0.4-0.3-0.7-0.6-1c-1.6-5-4.6-9.4-8.8-12.7l-0.1,0.3
		c-2.7-3.2-6.5-6.2-12-9.3C567.7,42.4,316.4,38.3,201,71.6l-5.8,1.7c-33.5,9.6-75.1,21.5-77.2,50.4c0,0.1-0.1,0.1-0.2,0.2
		c-4.8,7.8-1.1,15.1,2,21c0.8,1.6,1.5,3.1,2.2,4.6c0,0.1,0,0.1,0,0.2c-5.9,10.3-0.8,20.3,3.8,29.1c1.5,2.8,2.8,5.6,3.9,8.5l-0.6,4.5
		c-2.2,16.6-4.9,37.3,7.1,51.5c2,9.2,4.8,17.6,7.1,26.4l0.5-0.2c2.2,36.7-3.8,73.9-9.7,110c-8.6,52.7-17.5,107.1-0.5,160.6
		c-4.2,1.7-7.7,4.7-10,8.6c-2.8,4.8-3.7,10.5-2.5,16l-1-0.3c-2.2,18.4,14.2,18.1,17.5,31c-3.8,1.3-5.2,5.2-5.8,9.7l0.2-0.1
		c-25.2,55.7-12.8,115.3-0.6,173c11.8,56,23.9,113.9,0.7,166.9l-0.4,0.8l0.3,0.8l0.3,0.8c-1.4,5.8-1.2,11.7-0.9,17.4
		c0.2,6.2,0.5,12.2-1.2,17.7c-0.3,0-0.5,0.1-0.8,0.2c-7.8,3.4-8.2,12.1-8.5,17.8c0,1-0.1,2-0.2,2.8c-0.1,0.7,0.1,1.4,0.3,2
		c-3,5.9-1,11.8,0.8,17.1c1,2.5,1.7,5,2.1,7.7c-1.6,1.2-1.9,3.4-0.8,5.1c-2.7,8.7-2,17.7,2.4,26.7c20.5,42.2,111.6,70.7,112.5,70.9
		c72.3,20.8,215,25.6,319.5-2.8c57.6-15.7,94.2-35.2,109-57.9l0.6,0.7c14.7-9.5,7.9-25,9.7-40.7c0.6-4.9,5.2-7.8,5.8-11.6
		c4.5-26-9.7-28.7-13.6-44.6c-2.8-11.6,5-19.1-3.9-29.1l-0.3,0.4c-1.2-1.7-2.3-3.5-3.2-5.3c-0.7-1.3-1.4-2.6-2.2-3.9
		c-0.1-0.2-0.3-0.3-0.5-0.5l0.4-0.4c0.2-8.5-3.2-14.3-3.9-21.3c-9.8-103.3,59.6-241.2,3.9-322c19.1-9.7,19.1-35.9,3.9-48.5
		c14.7-16,19.4-51.6,15.7-80.8c0.3-0.5,0.4-1.1,0.4-1.8c-1.8-27.6-7.3-55.3-12.7-82.1c-7.6-38.2-15.5-77.6-12.5-117.2
		c0-0.3,0-0.6-0.1-0.9c2.9-7.4,5.1-15.4,9.1-21.7l-1.1-0.5c10.3-14.6,9.8-34.9,7.1-55.2C669.7,184.6,670.1,184,670.4,183.3z
		 M196.7,78.8l5.8-1.7C250.8,63.2,323,55.8,397,55.7c73.8-0.2,149.2,6.8,204.6,21.5c20.7,5.5,38.6,12.1,52.5,19.8
		c5.3,3,9.1,6,11.2,8.9c0.1,0.1,0.2,0.2,0.4,0.3l-0.5,0.5v5.8l1.8,0.1c-16.9,30.2-76.1,43-111.7,50.7l-3.7,0.8l0,0
		c-47.2,10.2-102.7,15.8-159.2,15.9c-100.5,0.2-204-17.1-268.6-56.5C126.3,99,165.2,87.8,196.7,78.8z M122.5,130.6L122.5,130.6
		c73.5,43.8,194.4,60,305.5,55.4c44.4-1.9,87.3-7.1,124.9-15.2l3.7-0.8c38.1-8.2,94.9-20.5,114.8-51.5h1c0.2,0.7,0.3,1.4,0.5,2.2
		c0.4,3.5,0.2,7.1-0.5,10.5l-0.3,1.6c-41.9,42.9-114.3,55.2-188,66.4l0,0c-0.5-0.4-1.2-0.7-1.9-0.8H482c-0.1,0-0.3,0-0.4,0
		c-62.1,4.6-129.4,6.9-195.4-2c-54.7-7.3-108.6-22.3-158-49.8c-0.7-1.7-1.5-3.3-2.3-4.9C123.6,137.2,122,133.8,122.5,130.6z
		 M140,238.9c-2.9-3.8-5-8.2-5.9-12.9c-0.2-0.9-0.4-1.9-0.5-2.9s-0.3-2-0.4-2.9c-0.2-2-0.3-4-0.3-6c0-4.1,0.3-8.3,0.7-12.4
		c0.3-3.1,0.7-6.2,1.1-9.2l0.3-2.2c1,0.4,2,0.8,3,1.1c7,2.8,13.9,6.3,20.6,9.7l0.1,0.1c7.7,4.1,15.6,7.7,23.7,10.9l0.2,0.1
		c1.3,1.8,1.5,4.6,1.5,7.6c0,2.3-0.1,4.7-0.1,7c0,0.8,0,1.5,0.1,2.2l0.2-0.1l0,0c-0.3,1.7-0.4,3.3-0.4,5c0,1,0,2-0.1,2.9
		c-10.3,5.4-25.6,6.8-38.5,3.6C143.5,240.1,141.7,239.6,140,238.9z M596.7,448.4L596.7,448.4c-4.9,32.6,0.2,73.7,14.1,96.8
		c-13.8,12-16.2,37.9,1.9,46.6c-25.1,37-24.8,104.6-15.5,161c9.5,57.1,25.2,105.7,23.3,166.1c-0.5,1.9-0.9,3.9-1.2,5.8
		c-0.2,2.3-0.8,4.5-1.6,6.7c-0.8,0.2-1.6,0.7-1.1,1.8c-6.7-16.6-4.7-37.8-7.8-56.3c-15.5-92-56.2-161.2-102.8-225
		c-18.9-25.9-51.7-59.8-50.4-100c0.5-1.3,1.2-2.6,1.9-4s1.5-3.1,2.1-4.7c68.9-81.6,142.2-159,153.1-298.6c7.8,2,3.7,15.9,7.1,22.2
		c5.3,36.3-3,72.3-11,107.1c-5.5,23.8-11.1,48.4-12.5,73.1C596.4,447.5,596.5,448,596.7,448.4z M601.1,229.6
		c-5.4,90.4-30.5,152.4-71.7,208.9c-22.5,30.9-56.4,66.2-73.7,99c-0.7,0.4-1.2,1-1.5,1.8c-0.7,1.9-1.5,3.8-2.5,5.6
		c-1,1.9-1.9,3.9-2.7,5.9c-0.1,0.2-0.1,0.5-0.1,0.7c-9.7,27.3,5.7,44.8,20.3,67.3c10.2,15.7,20.6,32.6,29.1,44.6
		C562,754.1,607.1,851.3,605,997.2l0.2,0.1c-3.5,2.6-7.2,5.1-11.1,7.5c-85.6,52.5-277.1,61.4-382.2,0.2c-4.3-2.5-8.4-5.1-12.4-7.8
		h0.1c-12.2-7.8-1.2-38.9-7.8-52.4h-0.2c0.1-0.2,0.2-0.5,0.2-0.7c0.3-3.7-0.6-7-1.4-10.2c-0.4-1.6-0.8-3.2-1-4.7l0.4,0.1
		c0.1-13,1.5-14.8,1.9-29.1l-0.3,0.1c9.8-116.4,65.6-200.9,124.4-274.8c2.7-3.4,5.6-6.8,8.4-10c7.7-8.9,15.6-18.2,20.6-28.8
		c16.6-35.4-22.7-81.3-54.2-118.2c-11.1-13-21.7-25.4-28.3-35.5c-36.7-56.3-62.4-122.8-70.8-182.7l0.2,0.1c1.4-5.9-2-7.1-1.9-11.6
		l-0.2,0.1c0.2-1.6,0.3-3.2,0.3-4.8c0-1.1,0.1-2.1,0.1-3c3.8,0,7.6,0.3,11.4,1c10.9,1.9,22,6,33,8.6s22.5,4.9,34.3,6.8
		c110.6,18.2,246.2,6.4,332.4-18.5C601.1,229.2,601.1,229.4,601.1,229.6L601.1,229.6z M258.1,435.7c6.8,10.4,17.4,22.9,28.7,36
		c30.6,35.8,68.7,80.4,53.5,112.8c-4.7,10-12.4,19-19.8,27.7c-2.8,3.3-5.8,6.7-8.5,10.2c-59.4,74.7-115.7,160.1-125.6,278l-0.4-0.2
		l0,0c-11.4-82.9,32.3-169.7,17.5-254.1c-3.3-18.8-10.4-37.4-21.3-52.4c3-10.1,17.4-11.1,19.4-23.3c1.8-10.6-4.7-16.9-9.7-27.2
		c34.8-92.2-24.5-192.2-9.7-292.9h3.9l0.5-0.2C194.8,310.9,220.9,378.5,258.1,435.7L258.1,435.7z M128.8,474.6
		c-0.2-31.6,5-63.2,10.1-94.3l0,0c5.9-36.2,12-73.6,9.8-110.8l0.5,0.1c-0.1-0.8-0.2-1.6-0.2-2.5c-0.1-4,1.6-5,4.1-5
		c3.5,0.1,8.8,2.4,13.6,2.3c1.3,0,2.6-0.2,3.8-0.7c-6.3,71,19.1,147.3,18.1,216.8c-0.1,4.7-0.3,9.4-0.6,14c-0.3,4-0.8,8.3-1.5,12.6
		c-0.3,1.9-0.7,3.8-1.1,5.7c-0.4,1.9-0.9,3.8-1.4,5.7c-0.6,2.3-1.4,4.6-2.2,6.8c-6.7,18.5-19,31.6-38.4,19.7l-0.2,0.2l0,0
		c-1.2-2.1-2.7-4.1-4.4-5.9l0,0c-0.1-0.1-0.3-0.2-0.4-0.3C131.5,517.8,128.9,496.2,128.8,474.6z M125.9,562.7L125.9,562.7l-0.3,0.4
		c-0.5-3-0.2-6.1,0.8-9c0.3-1,0.8-1.9,1.3-2.8c1.7-2.9,4.3-5.2,7.4-6.5c1,1.3,2,2.6,2.8,4c4.1,19.7,34.2,11.4,48.1,12.1l0,0
		C186.4,592,130.7,581.5,125.9,562.7z M135.9,945.8v-0.5l0.3,0.8l0,0l0,0c8.7-20.3,12.4-41.1,13.1-62.2c1-35.2-6.5-71.2-13.9-106.4
		c-6.7-32.1-13.6-64.8-13.9-96.9c-0.2-25,3.4-49.6,14.2-73.4c48.3-33.9,58,49,58,89.4c0,0.7,0,1.3,0,1.9
		c-0.5,61.8-24.7,129.6-20.9,186.8c1,16,4.3,31.2,10.9,45.1c0.3,1.7,0.7,3.4,1.1,5c0.7,2.5,1.2,5,1.2,7.6l0,0l0,0
		c-0.4,2.1-2.1,3-3.8,3.8l0.1,0.2l0,0l0,0c-13.5,5.6-30.1,5.3-45.8-0.6l-0.1-0.1v-0.1l0,0C136.1,946,136,945.9,135.9,945.8
		L135.9,945.8L135.9,945.8z M135.2,986c-0.1-0.3-0.1-0.6-0.3-0.8c-0.1-0.3-0.3-0.5-0.5-0.7l0,0c2-6.4,1.8-13,1.5-19.5
		c-0.4-4.8-0.2-9.7,0.5-14.5c16.3,5.8,33.4,5.9,47.4,0c0,0,0.1,0,0.1-0.1l0.1,0.3l0,0v56.2h0.1l0.6-0.2l0,0l0,0
		c-7.4,10.2-20.7,11.8-31.1,8.4l0,0c-7.8-2.5-16.2-8.3-19.4-17.5c-0.8-2.2-1.2-4.5-1.3-6.9C134.6,989.9,135.6,988,135.2,986z
		 M124.4,1010.2L124.4,1010.2L124.4,1010.2c27.4,58.5,144,83.6,193.9,91.9v-0.1c129.3,21.3,242.4-2.3,345.6-71.8
		c0.5,0.1,1.2,0.2,1.2,0l0,0l0,0c-10.8,29.5-63.6,47-102.8,60.1c-43.9,14.8-89.6,23.9-135.8,27.2c-107.9,7.2-219-26.3-276-65.6
		c-0.2-0.5-0.6-0.9-1-1.3c-2.8-2.5-5.5-5.3-7.8-8.3c-3.8-4.4-7.7-9-12.9-12.1c-0.4-3.1-1.2-6.2-2.4-9.2
		C124.8,1016.6,123.8,1013.2,124.4,1010.2L124.4,1010.2z M664.5,1062.2c-1.1,2.9-2.8,5.1-3.2,8.7c-14.6,20.9-50.8,39.7-105.2,54.5
		c-100.4,27.4-244.9,23.6-316.8,2.9c-14.3-4.1-66.3-23.4-94.5-49.4c-6.5-6-11.7-12.3-14.9-18.9c-3.3-6.5-4.3-13.9-2.6-21
		c0.8,0.6,1.5,1.2,2.2,1.9c2.2,2.1,4.2,4.4,6.2,6.8c2,2.4,4.1,4.8,6.4,7c0.8,0.7,1.6,1.5,2.4,2.1c0.5,0.4,1,0.7,1.6,0.8
		c62.6,47.7,167.7,78.4,278.5,71.6c82.5-5,165.4-27.4,217.3-62.1c7.6-5.1,14.1-12.2,23.3-13.6l0,0l0,0
		C665.8,1056.4,665.6,1059.4,664.5,1062.2L664.5,1062.2z M662.9,1006L662.9,1006L662.9,1006l0.3,0.9c4-1.8,5.9-5.7,5.8-11.6v0.1l0,0
		c6.8,11.4-4.5,21.3-7.8,29.1l0.5,0.4l0,0l0,0c-102.2,69.3-214.3,92.7-342.6,71.6c-38.7-6.4-118.3-23-162.9-57.4
		c-0.9-0.7-1.7-1.3-2.5-2l-0.1-0.1c-11.2-9.1-20-19.5-25-31.1c0.2-0.5,0.4-1,0.4-1.5c0.1-1,0.1-2.1,0.2-3.2c0.1-1.8,0.2-3.6,0.5-5.4
		v0.1l0,0c1.6,6.2,5.1,11.8,10.1,15.9c3.7,3.1,7.9,5.4,12.5,6.9c12.3,3.9,28.1,2,36.3-11.2l0,0l0,0l1,1.3c4-0.5,1.8-7.2,5.8-7.8h1.2
		c107.4,73.5,327.5,62.1,410.8,0.1c0.2,0.1,0.4,0.2,0.6,0.3c0.9,0.8,1,2.4,2,3.2c0.2,0.1,0.4,0.2,0.6,0.3l0.2-0.5v0l0,0
		c1.4,3,3.5,5.7,6.1,7.7c5,3.8,11,6,17.3,6.3C644.7,1019.2,657.2,1015.5,662.9,1006z M661.5,953.6L661.5,953.6l-0.3,0.9
		c0,24.7-0.5,32.5-1.9,50.4l0.3-0.1l0,0l0,0c-5.1,7.8-16,10.8-25,10.2l0,0c-6.6-0.5-14.3-3.1-18.7-9c-0.8-1-1.5-2.2-2-3.4l0,0
		l0.7,0.2l-0.1-3.1c-0.3-15.2,0.4-30.3,2-45.4l0,0l0.1-0.1v0.1h1.9v-0.3l0,0c1.6,0.8,3.3,1.6,5,2.2c0.3,0.1,0.5,0.2,0.8,0.3
		c0.6,0.2,1.2,0.4,1.8,0.6C637.9,960.5,650.6,959.2,661.5,953.6L661.5,953.6z M671,690.6c0.4,57.8-23.8,137.3-27.2,180.4
		c-2.3,29.8-0.2,57.6,10.8,70.8c0.5,0.9,1.1,1.9,1.6,2.9c0.9,1.7,1.9,3.4,3,5v1.5c-6.2,3.1-13.1,4.8-20.1,4.8
		c-6.8,0.1-13.6-1.5-19.7-4.7c-3.4-5,2.2-9.4,2.9-14.3l-0.2-0.2c0.2-0.2,0.4-0.3,0.5-0.5c2.2-3.4,2.7-7.1,3.2-10.7
		c0.2-2,0.6-4,1.2-5.9c0.3-0.9,0.2-2-0.3-2.8c8.3-60-20.9-145.1-25.8-212.6c-2.7-37.6,1.4-103.1,27.2-104.8l0,0l0,0
		C657.1,597.7,670.7,657,671,690.6L671,690.6z M612.8,556.8L612.8,556.8c15.9,7.1,30.6,6.8,46.5,5.8
		C663.5,591.7,597.7,583.8,612.8,556.8z M659.6,381.8c5.3,26.5,10.8,54,12.6,81.1c0,0.1,0,0.2,0.1,0.4c0,0.2,0.1,0.4,0.1,0.5
		c0.1,0.2,0.2,0.4,0.3,0.6l0,0c0,0.6-0.1,1.2-0.1,1.8c-1.2,18.7-2,49-12.5,65.4c-4.6,7.2-11,11.7-20.1,11.5
		c-33.2-0.7-35.3-64.4-36.9-97l-0.3,0.1l0,0c1.5-23.9,7-47.9,12.3-71c6.4-27.7,12.9-56.1,12.8-85.1c0-8.2-0.6-16.4-1.8-24.5l0,0
		l0.3,0.1c2.5-9.8,14.9,1.2,20.7-3.4l0,0c0,0.1,0,0.1,0,0.2l0,0c-0.4,5.1-0.6,10.1-0.7,15.2c-0.1,6.1,0.1,12.2,0.4,18.3
		C648.3,325.2,654,353.9,659.6,381.8L659.6,381.8z M658.2,237.6L658.2,237.6l-0.9-0.9c-4.9,2.5-10.3,3.8-15.9,3.8
		c-18.2,0.2-36.4-11.8-25.4-30.1c13.7-5.1,26.8-12.2,39.4-19.1l9.2-5l0,0C667.2,205.4,667.6,224.5,658.2,237.6L658.2,237.6z
		 M662.4,180.5L662.4,180.5l-9.9,5.4c-12.9,7.1-26.3,14.5-40.2,19.4c-0.2,0.1-0.3,0.1-0.4,0.2c-0.1,0.1-0.2,0.1-0.3,0.2
		c-0.2,0.1-0.3,0.2-0.4,0.4l0,0l-0.3-0.3c-65.2,18.7-145.8,29.4-225.4,29.3c-70.2-0.1-139.8-8.6-197.5-27.3l-0.5,0.5l0,0
		c-0.3-0.3-0.7-0.6-1.1-0.7c-8.6-3-17-7.3-25.1-11.5c-8.4-4.3-17.1-8.7-26.1-11.8c-1.1-2.8-2.4-5.5-3.8-8.2
		c-3.8-7.5-7.4-14.6-4.7-21.4l0,0c107.7,59,235.3,60,347.4,52.1l8.1-0.6c0.5,0,0.9-0.2,1.3-0.4c72.7-1.6,140-25.4,189.5-54.2l0,0
		c0.4,1.5,0,3.8,1.9,3.9l0,0l0.6,1.2c0.2,4.7-2.7,8.5-6.1,12.8C666.7,172.7,663.9,176.2,662.4,180.5L662.4,180.5z"/>
	<path class="st3" d="M628.3,599.5L628.3,599.5L628.3,599.5c-25.7,1.7-29.9,67.2-27.2,104.8c4.8,67.6,34.1,152.8,25.8,212.7
		c0.5,0.8,0.7,1.9,0.3,2.8c-0.6,1.9-1,3.9-1.2,5.9c-0.5,3.6-1.1,7.3-3.2,10.7c-0.1,0.2-0.3,0.4-0.5,0.5l0.2,0.2
		c-0.8,4.8-6.3,9.2-2.9,14.3c6.1,3.1,12.8,4.8,19.7,4.7c7,0,13.9-1.6,20.2-4.7v-1.5c-1.1-1.7-2.1-3.4-3-5c-0.5-1-1.1-2-1.6-2.9
		c-11-13.2-13.1-41-10.8-70.8c3.3-43.2,27.5-122.6,27.2-180.5C670.7,657,657.1,597.7,628.3,599.5z"/>
	<path class="st3" d="M612.8,556.8L612.8,556.8c-15.1,27,50.7,34.8,46.6,5.8C643.3,563.7,628.6,564,612.8,556.8z"/>
	<path class="st3" d="M522,411.8c0.1-0.1,0.2-0.2,0.3-0.3C522.2,411.6,522.1,411.7,522,411.8z"/>
	<path class="st3" d="M521.5,412.3c0.1-0.2,0.2-0.3,0.3-0.5C521.7,412,521.6,412.2,521.5,412.3z"/>
	<path class="st3" d="M522.5,411.3c0.1-0.1,0.2-0.1,0.3-0.2C522.7,411.2,522.6,411.3,522.5,411.3z"/>
	<path class="st3" d="M527.4,412.2c-0.4-0.6-1-1-1.7-1.3c-0.2-0.1-0.4-0.1-0.6-0.2c0.2,0,0.4,0.1,0.6,0.2
		C526.4,411.2,527,411.6,527.4,412.2z"/>
	<path class="st3" d="M524.8,410.7L524.8,410.7z"/>
	<path class="st3" d="M436.8,534.1c9.8-22.2,25.9-40.7,41.5-58.5c15.8-18.1,32.1-36.7,41.4-59.1c-0.5,1.1-1,2.2-1.5,3.4
		c-9.5,20.9-25,38.6-40,55.7C462.7,493.4,446.5,511.9,436.8,534.1L436.8,534.1c-0.3,0.7-0.4,1.4-0.3,2.1
		C436.4,535.5,436.5,534.7,436.8,534.1z"/>
	<path class="st3" d="M523.5,410.9L523.5,410.9z"/>
	<path class="st3" d="M521.5,412.4c-0.1,0.2-0.2,0.4-0.3,0.6c-0.4,1-0.8,2.1-1.3,3.1c0.4-1,0.9-2.1,1.3-3.1
		C521.2,412.8,521.3,412.6,521.5,412.4z"/>
	<path class="st3" d="M524,410.8L524,410.8z"/>
	<path class="st3" d="M279.3,706.8c-0.9,1.7-3,2.4-4.7,1.5l0,0c-1.2-0.6-2-1.9-1.9-3.3c-0.1,1.9,1.3,3.6,3.2,3.7
		C277.3,708.9,278.7,708.1,279.3,706.8c17.4-33.6,39.4-64.7,65.4-92.3c0.5-0.5,0.8-1.1,0.9-1.8c-0.1,0.7-0.4,1.3-0.9,1.8
		C318.7,642.1,296.7,673.2,279.3,706.8z"/>
	<path class="st3" d="M153.6,1015.1L153.6,1015.1c10.5,3.4,23.8,1.9,31.1-8.4l0,0l0,0l-0.6,0.2h-0.1v-56.2l0,0l-0.1-0.3
		c0,0-0.1,0-0.1,0.1c-14,5.9-31.1,5.8-47.4,0c-0.7,4.8-0.9,9.6-0.5,14.5c0.3,6.5,0.5,13.1-1.5,19.5l0,0c0.2,0.2,0.4,0.5,0.5,0.7
		c0.1,0.3,0.2,0.5,0.3,0.8c0.4,1.9-0.6,3.9-2.4,4.8c0.1,2.3,0.6,4.7,1.3,6.9C137.4,1006.8,145.9,1012.7,153.6,1015.1z"/>
	<path class="st3" d="M128.2,146.6c49.4,27.5,103.2,42.4,157.9,49.8c66,8.9,133.3,6.6,195.4,2c0.1,0,0.3,0,0.4,0h0.2
		c0.7,0.1,1.3,0.4,1.9,0.8l0,0c73.7-11.1,146.1-23.5,188-66.4l0.3-1.6c0.8-3.5,0.9-7,0.5-10.5c-0.1-0.7-0.3-1.5-0.5-2.2h-1
		c-19.8,31.1-76.6,43.3-114.7,51.6l-3.7,0.8c-37.6,8.2-80.5,13.4-125,15.2c-111.1,4.7-232-11.6-305.5-55.4l0,0
		c-0.5,3.2,1.1,6.5,3.4,11.1C126.7,143.3,127.5,144.9,128.2,146.6z"/>
	<path class="st3" d="M551.5,164.1L551.5,164.1l3.7-0.8c35.6-7.7,94.8-20.5,111.7-50.7l-1.8-0.1v-5.8l0.5-0.5
		c-0.1-0.1-0.2-0.2-0.4-0.3c-2-2.9-5.8-5.9-11.2-8.9c-13.9-7.7-31.8-14.3-52.5-19.8C546.3,62.5,470.8,55.5,397,55.7
		c-74,0.2-146.2,7.5-194.4,21.5l-5.8,1.7c-31.5,9-70.4,20.2-72.9,44.8c64.6,39.4,168,56.7,268.6,56.5
		C448.8,179.9,504.3,174.4,551.5,164.1z"/>
	<path class="st3" d="M138.8,539.5L138.8,539.5c1.7,1.8,3.1,3.8,4.4,5.9l0,0l0.2-0.2c19.4,11.9,31.7-1.1,38.4-19.7
		c0.8-2.2,1.5-4.5,2.2-6.8c0.5-1.9,1-3.8,1.4-5.7s0.8-3.8,1.1-5.7c0.7-4.3,1.2-8.5,1.5-12.6c0.3-4.7,0.5-9.3,0.6-14
		c1-69.5-24.3-145.8-18.1-216.8c-1.2,0.4-2.5,0.7-3.8,0.7c-4.9,0.1-10.1-2.2-13.6-2.3c-2.6-0.1-4.2,1-4.1,5c0,0.8,0.1,1.7,0.2,2.5
		l-0.5-0.1c2.2,37.1-3.9,74.5-9.8,110.8l0,0c-5.1,31-10.2,62.7-10.1,94.3c0.1,21.6,2.7,43.2,9.5,64.6
		C138.5,539.3,138.6,539.4,138.8,539.5z"/>
	<path class="st3" d="M675.5,156.6l-0.6-1.2l0,0c-1.9-0.1-1.5-2.4-1.9-3.9l0,0c-49.5,28.9-116.8,52.6-189.5,54.2
		c-0.4,0.2-0.9,0.3-1.3,0.4l-8.1,0.6c-112.1,7.9-239.7,6.9-347.4-52.1l0,0c-2.7,6.9,0.9,14,4.7,21.4c1.4,2.7,2.7,5.5,3.8,8.2
		c9,3.1,17.7,7.5,26.1,11.8c8.1,4.2,16.6,8.4,25.1,11.5c0.4,0.2,0.8,0.4,1.1,0.7l0,0l0.5-0.5c57.8,18.7,127.3,27.2,197.5,27.3
		c79.6,0.1,160.1-10.6,225.3-29.2l0.3,0.3l0,0c0.1-0.1,0.3-0.3,0.4-0.4c0.1-0.1,0.2-0.1,0.3-0.2c0.1-0.1,0.3-0.1,0.4-0.2
		c13.9-4.9,27.2-12.3,40.2-19.4l9.9-5.4l0,0c1.5-4.3,4.3-7.8,6.9-11.1C672.7,165,675.7,161.3,675.5,156.6z"/>
	<path class="st3" d="M626.2,957.3c-0.6-0.2-1.2-0.4-1.8-0.6c-0.3-0.1-0.5-0.2-0.8-0.3c-1.7-0.6-3.4-1.3-5-2.2l0,0v0.3h-1.9
		c-1.6,15.1-2.3,30.2-2,45.4l0.1,3.1l-0.7-0.2l0,0c0.5,1.2,1.2,2.3,2,3.4c4.4,5.8,12,8.5,18.7,9l0,0c9,0.6,19.9-2.4,25-10.2l0,0l0,0
		l-0.3,0.1c1.4-17.9,1.9-25.8,1.9-50.4l0.3-0.9l0,0C650.6,959.3,638,960.6,626.2,957.3z"/>
	<path class="st3" d="M616.6,954.5L616.6,954.5L616.6,954.5L616.6,954.5z"/>
	<path class="st3" d="M646.3,277.9c0.1-5,0.3-10.1,0.7-15.2l0,0c0-0.1,0-0.1,0-0.2l0,0c-5.8,4.5-18.2-6.4-20.7,3.4l-0.3-0.1l0,0
		c1.2,8.1,1.8,16.3,1.8,24.5c0.1,29-6.4,57.4-12.8,85.1c-5.3,23.2-10.8,47.2-12.3,71l0,0l0.3-0.1c1.5,32.6,3.7,96.3,36.9,97
		c9.1,0.2,15.6-4.3,20.1-11.5c10.5-16.4,11.3-46.7,12.5-65.5c0-0.6,0.1-1.2,0.1-1.8l0,0c-0.1-0.2-0.2-0.4-0.3-0.6
		c-0.1-0.2-0.1-0.4-0.1-0.5c0-0.1-0.1-0.2-0.1-0.4c-1.8-27.2-7.3-54.6-12.6-81.1c-5.6-28-11.3-56.6-12.9-85.7
		C646.4,290.1,646.2,284,646.3,277.9z"/>
	<path class="st3" d="M664.7,186.4L664.7,186.4l-9.2,5c-12.6,7-25.7,14.1-39.4,19.1c-11,18.3,7.2,30.3,25.4,30.1
		c5.5,0,11-1.3,15.9-3.8l0.9,0.9l0,0C667.6,224.5,667.1,205.5,664.7,186.4L664.7,186.4z"/>
	<path class="st3" d="M183.8,236.9c0.1-0.9,0.1-1.9,0.1-2.9c0-1.7,0.1-3.3,0.4-5l0,0l-0.2,0.1c-0.1-0.7-0.1-1.4-0.1-2.2
		c0-2.3,0.1-4.7,0.1-7c0-3-0.3-5.8-1.5-7.6l-0.2-0.1c-8.1-3.2-16-6.9-23.7-10.9l-0.1-0.1c-6.7-3.4-13.6-6.9-20.6-9.7
		c-1-0.4-2-0.8-3-1.1l-0.3,2.2c-0.4,3-0.8,6.1-1.1,9.2c-0.5,4.1-0.7,8.2-0.7,12.4c0,2,0.1,4.1,0.3,6c0.1,1,0.2,2,0.4,2.9
		s0.3,1.9,0.5,2.9c1,4.7,3,9.2,5.9,13c1.8,0.6,3.5,1.2,5.4,1.6C158.2,243.7,173.5,242.3,183.8,236.9z"/>
	<path class="st3" d="M186,560.7L186,560.7c-13.9-0.6-44,7.6-48.1-12.1c-0.8-1.4-1.7-2.7-2.8-4c-3.1,1.3-5.7,3.6-7.4,6.5
		c-0.5,0.9-1,1.8-1.3,2.8c-1,2.9-1.3,6-0.8,9l0.3-0.4l0,0C130.7,581.5,186.4,592,186,560.7z"/>
	<path class="st3" d="M136.2,946.2L136.2,946.2L136.2,946.2l0.1,0.2c15.7,6,32.3,6.2,45.8,0.6l0,0l0,0l-0.1-0.2
		c1.7-0.8,3.4-1.7,3.8-3.8l0,0l0,0c-0.1-2.6-0.5-5.1-1.2-7.6c-0.4-1.6-0.8-3.3-1.1-5c-6.6-14-9.8-29.1-10.9-45.1
		c-3.8-57.1,20.5-124.9,20.9-186.8c0-0.6,0-1.3,0-1.9c0-40.4-9.7-123.3-58-89.4c-10.8,23.8-14.4,48.4-14.2,73.4
		c0.3,32.1,7.1,64.8,13.9,96.9c7.4,35.2,14.9,71.2,13.9,106.4C148.6,905,144.9,925.9,136.2,946.2L136.2,946.2L136.2,946.2l-0.4-0.8
		v0.5l0,0l0,0C136,946,136.1,946.1,136.2,946.2z"/>
	<path class="st3" d="M141.7,1042.3c2.4,3,5,5.7,7.8,8.3c0.4,0.4,0.8,0.8,1,1.3c57,39.2,168.1,72.8,276,65.6
		c46.2-3.3,91.9-12.4,135.8-27.2c39.2-13.1,92-30.6,102.8-60.1l0,0l0,0c0,0.1-0.7,0-1.2,0c-103.2,69.5-216.2,93-345.6,71.8v0.1
		c-49.9-8.2-166.4-33.3-193.9-91.8l0,0l0,0c-0.6,3.1,0.4,6.5,1.9,10.9c1.2,2.9,2,6,2.4,9.2C134,1033.4,138,1037.9,141.7,1042.3z"/>
	<path class="st3" d="M665.1,1053.4L665.1,1053.4L665.1,1053.4c-9.2,1.4-15.7,8.5-23.3,13.6c-51.9,34.7-134.7,57.1-217.3,62.1
		c-110.9,6.7-216-23.9-278.5-71.6c-0.6-0.1-1.1-0.4-1.6-0.8c-0.8-0.7-1.6-1.4-2.4-2.1c-2.3-2.2-4.4-4.7-6.4-7
		c-1.9-2.4-4-4.6-6.2-6.8c-0.7-0.7-1.4-1.3-2.2-1.9c-1.6,7.1-0.7,14.5,2.6,21c3.2,6.6,8.4,13,14.9,18.9c28.2,26,80.2,45.2,94.5,49.4
		c71.9,20.7,216.4,24.5,316.8-2.9c54.4-14.8,90.6-33.6,105.2-54.5c0.4-3.6,2.1-5.8,3.2-8.7C665.6,1059.4,665.8,1056.4,665.1,1053.4
		L665.1,1053.4z"/>
	<path class="st3" d="M634.4,1018.5c-6.3-0.3-12.3-2.5-17.3-6.3c-2.6-2.1-4.7-4.7-6.1-7.7l0,0v0l-0.2,0.5c-0.2-0.1-0.4-0.1-0.6-0.3
		c-1-0.7-1.1-2.4-2-3.2c-0.2-0.1-0.4-0.3-0.6-0.3c-83.3,62-303.4,73.4-410.8-0.1h-1.2c-4,0.5-1.8,7.2-5.8,7.8l-1-1.3l0,0l0,0
		c-8.2,13.1-24.1,15.1-36.3,11.2c-4.6-1.5-8.8-3.8-12.5-6.9c-5-4.1-8.5-9.6-10.1-15.9l0,0v-0.1c-0.3,1.8-0.4,3.6-0.5,5.4
		c-0.1,1.1-0.1,2.2-0.2,3.2c0,0.5-0.2,1-0.4,1.5c5,11.7,13.8,22,25,31.1l0.1,0.1c0.8,0.7,1.7,1.3,2.5,2c44.6,34.4,124.2,51,163,57.4
		c128.3,21.1,240.4-2.4,342.6-71.6l0,0l0,0l-0.5-0.4c3.3-7.7,14.6-17.7,7.8-29.1l0,0v-0.1c0.1,5.9-1.8,9.9-5.8,11.6l-0.3-0.8l0,0v0
		C657.2,1015.5,644.7,1019.2,634.4,1018.5z"/>
	<path d="M524.1,410.8H524c-0.2,0-0.3,0.1-0.5,0.1l0,0c-0.3,0.1-0.5,0.2-0.7,0.3c-0.1,0.1-0.2,0.1-0.3,0.2l-0.2,0.1
		c-0.1,0.1-0.2,0.2-0.3,0.3l-0.1,0.1c-0.1,0.1-0.2,0.3-0.3,0.5c0,0,0,0,0,0.1c-0.1,0.2-0.2,0.4-0.3,0.6c-0.4,1.1-0.8,2.1-1.3,3.1
		l-0.1,0.3c-9.4,22.4-25.6,41-41.4,59.1c-15.6,17.9-31.8,36.3-41.5,58.5c-0.8,1.8,0,3.9,1.8,4.7l0,0c1.8,0.8,3.9,0,4.7-1.8
		c9.3-21.2,25.1-39.2,40.3-56.7c17-19.5,34.6-39.6,44.1-64.7c0.7-1.8-0.2-3.9-2.1-4.6c0,0,0,0,0,0c-0.2-0.1-0.4-0.1-0.6-0.2
		c-0.1,0-0.3,0-0.4,0h-0.1C524.5,410.7,524.3,410.7,524.1,410.8z"/>
	<path d="M339.6,609.8c-26.4,28.1-48.8,59.7-66.5,93.9c-0.9,1.7-0.2,3.8,1.5,4.7c0,0,0,0,0,0l0,0c1.7,0.9,3.8,0.2,4.7-1.5
		c17.4-33.6,39.4-64.7,65.4-92.3c1.3-1.4,1.2-3.6-0.2-4.9C343.1,608.3,340.9,608.3,339.6,609.8L339.6,609.8z"/>
</g>
</svg>
